<svg version="1.2" xmlns="http://www.w3.org/2000/svg" viewBox="0 0 150 40" width="150" height="40">
	<title>DS-Y-svg</title>
	<style>
		.s0 { fill: #fdcd0b } 
	</style>
	<g id="Layer">
		<path id="Layer" fill-rule="evenodd" class="s0" d="m1.8 3.7h6.2q6 0 8.1 0.6c1.4 0.4 2.5 1 3.2 1.8 0.7 0.8 1.2 1.8 1.4 2.8 0.2 1 0.3 3.1 0.3 6.1v11.2c0 2.9-0.1 4.8-0.4 5.8-0.3 1-0.7 1.7-1.4 2.3-0.7 0.5-1.5 0.9-2.5 1.1q-1.5 0.3-4.5 0.3h-10.4zm8.3 5.4v21c1.2 0 1.9-0.2 2.2-0.7 0.3-0.5 0.4-1.8 0.4-3.9v-12.4c0-1.4 0-2.4-0.1-2.8q-0.1-0.6-0.6-0.9c-0.4-0.2-1-0.3-1.9-0.3z"/>
		<path id="Layer" fill-rule="evenodd" class="s0" d="m37.7 3.7l4.8 32h-8.5l-0.4-5.7h-3l-0.6 5.6h-8.6l4.2-32h12.1zm-4.4 20.5c-0.4-3.6-0.8-8.1-1.3-13.4-0.8 6.1-1.4 10.6-1.6 13.4z"/>
		<path id="Layer" class="s0" d="m52.6 19.8v5.5h-10.5v-5.5z"/>
		<path id="Layer" class="s0" d="m71.8 13.3h-7.7v-2.3q0-1.6-0.3-2.1c-0.2-0.3-0.5-0.5-1-0.5-0.5 0-0.9 0.2-1.1 0.6-0.3 0.4-0.4 1-0.4 1.9 0 1.1 0.1 1.9 0.4 2.4 0.3 0.5 1.1 1.2 2.3 2 3.7 2.2 6 4 7 5.4 1 1.4 1.4 3.7 1.4 6.8 0 2.3-0.3 4-0.8 5-0.5 1.1-1.6 2-3.1 2.7-1.5 0.7-3.3 1.1-5.3 1.1-2.2 0-4.1-0.4-5.7-1.3-1.6-0.8-2.6-1.9-3.1-3.2-0.5-1.3-0.7-3.2-0.7-5.6v-2.1h7.7v3.9c0 1.2 0.1 2 0.3 2.3 0.2 0.3 0.6 0.5 1.2 0.5 0.6 0 1-0.2 1.2-0.7 0.3-0.4 0.4-1.1 0.4-1.9 0-1.9-0.3-3.1-0.8-3.7-0.5-0.6-1.8-1.5-3.9-2.9-2.1-1.4-3.4-2.4-4.1-3-0.7-0.6-1.2-1.5-1.7-2.6-0.4-1.1-0.7-2.5-0.7-4.2q0-3.6 0.9-5.4 0.9-1.7 3-2.7c1.4-0.6 3.1-1 5.1-1 2.2 0 4 0.3 5.5 1 1.5 0.7 2.5 1.6 3 2.6 0.5 1.1 0.7 2.9 0.7 5.4v1.6z"/>
		<path id="Layer" class="s0" d="m94.1 3.7l-4.8 14.4 5.2 17.5h-8.5l-3.4-13.7v13.7h-8.3v-32h8.3v12.4l3.7-12.4h7.8z"/>
		<path id="Layer" fill-rule="evenodd" class="s0" d="m110.4 3.7l4.8 32h-8.5l-0.4-5.7h-3l-0.5 5.7h-8.6l4.2-32zm-4.5 20.5c-0.4-3.6-0.8-8.1-1.3-13.4-0.8 6.1-1.4 10.6-1.6 13.4z"/>
		<path id="Layer" class="s0" d="m130.2 3.7v6.4h-4.9v25.6h-8.3v-25.6h-4.9v-6.4z"/>
		<path id="Layer" class="s0" d="m131.3 3.7h13.9v6.4h-5.6v6.1h5.2v6.1h-5.2v7h6.1v6.4h-14.4z"/>
	</g>
</svg>