<?xml version="1.0" standalone="no"?>
<!DOCTYPE svg PUBLIC "-//W3C//DTD SVG 20010904//EN"
 "http://www.w3.org/TR/2001/REC-SVG-20010904/DTD/svg10.dtd">
<svg version="1.0" xmlns="http://www.w3.org/2000/svg"
 width="810.000000pt" height="810.000000pt" viewBox="0 0 810.000000 810.000000"
 preserveAspectRatio="xMidYMid meet">

<g transform="translate(0.000000,810.000000) scale(0.100000,-0.100000)"
fill="" stroke="none">
<path d="M2985 5270 c-74 -10 -176 -44 -230 -75 -58 -35 -129 -112 -162 -175
-25 -50 -28 -65 -28 -160 0 -99 2 -110 33 -172 58 -118 162 -190 384 -267 64
-22 129 -46 145 -54 72 -38 101 -113 68 -176 -51 -100 -272 -92 -434 17 l-64
42 -62 -67 c-34 -38 -73 -81 -88 -98 -14 -16 -28 -28 -30 -25 -3 3 -84 275
-179 605 l-174 600 -241 3 c-223 2 -241 1 -245 -15 -6 -20 -197 -683 -235
-812 -13 -45 -26 -81 -28 -79 -3 2 0 47 6 99 22 188 -8 399 -72 520 -80 149
-261 248 -509 279 -46 5 -194 10 -327 10 l-243 0 0 -686 0 -686 308 5 c270 4
317 7 390 26 185 47 316 140 381 269 13 24 25 42 28 39 3 -3 -16 -75 -41 -159
-25 -85 -46 -160 -46 -166 0 -9 53 -12 204 -12 186 0 205 2 210 18 3 9 14 66
26 126 11 59 23 112 26 117 3 5 77 9 164 9 157 0 160 0 165 -22 3 -13 15 -72
28 -133 l22 -110 209 -3 209 -2 -6 32 c-4 18 -9 43 -13 56 -6 21 0 19 61 -22
82 -55 188 -100 275 -117 95 -18 291 -16 374 5 158 38 289 134 342 251 25 53
26 63 22 198 -3 136 -4 144 -33 196 -56 101 -155 165 -383 245 -162 58 -193
74 -210 112 -18 39 -14 61 17 96 28 31 34 33 109 36 96 5 162 -12 246 -63 32
-19 60 -35 61 -35 10 0 165 192 165 203 0 18 -104 91 -176 123 -111 49 -291
72 -419 54z m-2114 -303 c47 -20 95 -74 114 -127 38 -107 41 -367 5 -491 -32
-111 -124 -169 -270 -169 l-50 0 0 406 0 407 84 -6 c46 -3 99 -12 117 -20z
m1070 -73 c5 -38 24 -148 44 -244 19 -96 35 -180 35 -187 0 -10 -27 -13 -106
-13 -105 0 -106 0 -101 23 6 23 80 404 92 471 9 55 25 33 36 -50z"/>
<path d="M3646 5231 c-4 -5 -6 -314 -5 -685 l2 -676 196 2 196 3 0 680 0 680
-192 3 c-113 1 -194 -1 -197 -7z"/>
<path d="M4422 5213 c-10 -16 -94 -154 -185 -309 -106 -178 -167 -290 -167
-307 0 -16 76 -174 179 -375 l179 -347 405 -3 c380 -2 406 -1 411 15 3 10 14
67 26 127 11 59 23 112 26 117 3 5 77 9 164 9 157 0 160 0 165 -22 3 -13 15
-72 28 -133 l22 -110 208 -3 c185 -2 207 -1 207 14 0 15 -42 160 -290 1014
l-97 335 -236 3 c-217 2 -237 1 -245 -15 -5 -10 -92 -301 -193 -646 -142 -488
-185 -625 -194 -615 -7 7 -94 161 -194 341 l-181 328 190 298 c104 164 190
301 190 305 0 3 -90 6 -199 6 l-200 0 -19 -27z m1092 -533 c25 -135 47 -248
46 -252 0 -5 -48 -8 -106 -8 -105 0 -106 0 -101 23 3 12 24 119 47 237 51 272
50 265 59 254 4 -5 29 -119 55 -254z"/>
<path d="M5854 5227 c-2 -7 -3 -74 -2 -148 l3 -134 163 -3 162 -2 0 -523 c0
-287 4 -528 8 -535 7 -9 54 -12 203 -10 l194 3 -4 470 c-1 259 0 498 4 532 l8
62 151 3 151 3 12 70 c6 39 14 105 18 148 l7 77 -536 0 c-431 0 -538 -3 -542
-13z"/>
<path d="M6960 4555 l0 -685 440 0 440 0 0 140 0 140 -240 0 -240 0 0 140 0
140 198 2 197 3 0 130 0 130 -197 3 -198 2 0 130 0 130 225 0 225 0 5 23 c5
26 35 233 35 247 0 6 -164 10 -445 10 l-445 0 0 -685z"/>
</g>
</svg>
