<?xml version="1.0" standalone="no"?>
<!DOCTYPE svg PUBLIC "-//W3C//DTD SVG 20010904//EN"
 "http://www.w3.org/TR/2001/REC-SVG-20010904/DTD/svg10.dtd">
<svg version="1.0" xmlns="http://www.w3.org/2000/svg"
 width="1600.000000pt" height="1600.000000pt" viewBox="0 0 1600.000000 1600.000000"
 preserveAspectRatio="xMidYMid meet">

<g transform="translate(0.000000,1600.000000) scale(0.100000,-0.100000)"
fill="red" stroke="none">
<path d="M7425 15560 c-11 -5 27 -6 90 -3 61 3 112 7 114 9 9 8 -185 2 -204
-6z"/>
<path d="M8381 15566 c2 -2 63 -6 134 -9 74 -3 119 -2 105 3 -24 8 -248 14
-239 6z"/>
<path d="M7155 15540 c-15 -6 -9 -9 25 -9 25 0 54 4 65 9 15 6 9 9 -25 9 -25
0 -54 -4 -65 -9z"/>
<path d="M8795 15540 c-17 -7 -15 -9 11 -9 17 -1 47 -3 65 -6 l34 -5 -30 14
c-34 17 -51 18 -80 6z"/>
<path d="M6955 15510 c-13 -6 -1 -7 35 -3 30 3 57 7 59 9 9 8 -75 2 -94 -6z"/>
<path d="M8990 15509 c25 -4 59 -8 75 -8 26 0 27 2 10 9 -11 5 -45 8 -75 8
l-55 -1 45 -8z"/>
<path d="M7687 15500 c-1049 -48 -2011 -287 -2932 -729 -1010 -485 -1921
-1211 -2619 -2086 -755 -945 -1263 -2036 -1500 -3215 -188 -941 -189 -2003 -1
-2934 392 -1942 1512 -3631 3150 -4748 1010 -689 2208 -1128 3415 -1252 564
-58 1195 -53 1739 14 850 106 1727 377 2488 770 1978 1022 3391 2838 3891
5000 234 1009 250 2135 46 3149 -339 1679 -1220 3166 -2534 4277 -1130 955
-2563 1567 -4025 1718 -355 37 -795 51 -1118 36z m53 -350 c19 -6 44 -17 54
-25 19 -14 19 -15 1 -34 -16 -19 -19 -19 -49 -4 -41 21 -112 20 -137 -3 -11
-10 -19 -30 -19 -50 0 -41 18 -53 117 -84 100 -31 128 -62 128 -140 0 -48 -4
-63 -25 -85 -14 -15 -39 -34 -57 -41 -49 -21 -139 -18 -190 7 -47 23 -49 27
-30 53 12 16 15 16 57 -3 96 -44 180 -11 180 69 0 48 -18 63 -112 91 -82 24
-125 58 -134 105 -8 46 0 76 32 108 42 42 114 56 184 36z m298 -227 l-3 -238
-30 0 c-28 0 -30 2 -33 45 -2 25 -1 132 3 238 l7 192 29 0 29 0 -2 -237z m252
221 c0 -3 -39 -50 -86 -104 l-86 -99 91 -125 c50 -69 91 -128 91 -131 0 -3
-17 -5 -37 -5 -37 1 -40 4 -126 126 -49 68 -87 129 -85 134 2 5 41 55 87 110
76 90 87 100 117 100 19 0 34 -3 34 -6z m319 -20 c3 -3 110 -452 111 -466 0
-5 -15 -8 -33 -8 -32 0 -33 1 -45 59 -14 68 -14 68 -121 73 l-74 3 -21 -57
c-16 -45 -26 -58 -41 -58 -47 1 -45 11 41 220 46 113 88 215 94 228 9 20 15
22 47 16 21 -4 40 -8 42 -10z m-1256 -196 c47 -106 93 -210 102 -231 l16 -38
-37 3 c-34 3 -38 7 -58 56 l-21 54 -75 -7 c-106 -9 -107 -10 -115 -58 -4 -23
-9 -49 -11 -58 -5 -19 -64 -32 -64 -15 0 6 21 115 47 243 42 205 50 233 68
236 62 13 57 19 148 -185z m1670 156 c131 -17 137 -18 137 -40 0 -32 -11 -36
-77 -25 -32 5 -59 8 -60 7 -1 -1 -14 -94 -30 -206 l-28 -205 -30 3 c-17 2 -31
5 -33 7 -2 1 10 93 25 204 16 111 27 204 25 206 -3 2 -31 7 -63 11 -57 6 -59
7 -59 37 0 27 2 29 28 24 15 -3 89 -13 165 -23z m-2155 -58 c66 -34 101 -102
109 -211 7 -90 -7 -133 -57 -179 -40 -36 -102 -59 -190 -71 l-45 -7 -38 219
c-21 120 -37 225 -37 234 0 35 198 46 258 15z m2576 -16 c55 -11 101 -21 102
-23 1 -1 -2 -13 -7 -26 -7 -17 -15 -22 -32 -18 -69 17 -148 29 -153 24 -7 -7
-36 -139 -32 -143 2 -1 35 -8 73 -16 65 -13 70 -16 73 -42 3 -23 0 -27 -15
-23 -46 14 -135 28 -140 23 -5 -5 -32 -121 -33 -142 0 -7 40 -19 93 -29 50
-10 93 -19 95 -20 2 -2 0 -14 -3 -27 l-6 -25 -117 24 c-64 13 -122 25 -128 27
-8 3 2 71 32 223 25 120 46 224 49 231 3 7 14 10 27 7 13 -3 68 -14 122 -25z
m-3749 -247 c-24 -62 -86 -245 -83 -247 1 -2 60 -40 130 -86 71 -45 126 -86
123 -90 -3 -5 -19 -11 -36 -15 -27 -6 -46 3 -155 76 -68 45 -127 80 -129 77
-3 -3 13 -53 35 -113 23 -59 37 -112 33 -116 -5 -5 -19 -10 -31 -11 -22 -3
-29 13 -102 212 -73 197 -78 216 -62 228 31 24 45 8 81 -90 20 -55 38 -92 42
-85 4 6 26 67 49 134 36 105 46 124 69 132 38 14 44 13 36 -6z m4908 -99 c41
-21 85 -62 103 -96 32 -61 6 -191 -55 -277 -52 -73 -151 -90 -268 -46 -38 15
-71 29 -75 33 -5 5 27 98 70 208 43 109 82 207 85 216 6 17 9 17 58 -2 28 -11
65 -28 82 -36z m-4321 31 c0 -8 1 -20 2 -27 1 -9 -173 -64 -179 -56 -2 2 -6
13 -9 25 -7 23 -11 21 134 61 48 14 50 14 52 -3z m3661 -48 c77 -23 82 -27 74
-59 -4 -15 -13 -14 -93 9 -49 14 -91 27 -92 28 -8 7 10 45 21 45 7 0 47 -11
90 -23z m-4678 -154 c26 -60 70 -156 96 -216 l48 -107 -38 -20 -39 -19 -163
138 c-90 77 -165 138 -167 136 -2 -1 6 -18 17 -36 10 -19 47 -96 81 -173 49
-110 59 -140 49 -147 -37 -23 -46 -10 -141 203 l-95 213 40 17 39 18 156 -133
c178 -151 191 -161 167 -124 -9 15 -48 95 -86 179 -68 153 -68 153 -46 165 12
7 25 12 28 13 3 0 27 -48 54 -107z m5788 -18 c59 -27 107 -52 107 -55 0 -3 -6
-14 -13 -24 -12 -16 -17 -15 -87 18 -41 20 -79 36 -85 36 -10 -1 -71 -127 -64
-134 2 -2 34 -19 71 -37 62 -32 66 -35 55 -56 l-12 -21 -71 32 -71 33 -32 -64
c-17 -35 -31 -68 -31 -74 0 -5 38 -28 85 -51 47 -22 85 -44 85 -47 0 -4 -6
-15 -12 -24 -12 -15 -24 -11 -129 41 l-117 57 101 212 c55 117 102 211 106
210 3 -2 54 -25 114 -52z m-6226 -248 c45 -84 84 -170 88 -190 20 -102 -114
-212 -217 -178 -19 6 -46 24 -61 39 -22 23 -191 322 -184 327 1 1 13 8 26 15
30 16 31 15 113 -140 70 -134 92 -166 120 -181 28 -15 81 -3 112 26 45 42 37
78 -55 248 l-82 151 23 18 c12 10 25 18 29 18 3 -1 43 -69 88 -153z m6593 68
c46 -23 100 -83 100 -111 0 -9 -41 -29 -45 -21 -53 95 -152 129 -184 63 -17
-36 -7 -60 53 -124 55 -59 66 -81 66 -129 0 -73 -62 -133 -137 -133 -62 1
-158 63 -189 122 -18 35 -18 37 8 47 19 7 27 2 50 -31 56 -77 134 -100 178
-53 38 40 31 76 -27 142 -27 32 -55 68 -61 80 -28 51 -4 130 46 157 40 22 86
19 142 -9z m361 -216 c120 -82 149 -175 87 -291 -66 -123 -144 -171 -243 -149
-61 14 -188 88 -178 105 9 15 168 268 211 334 38 61 36 61 123 1z m-7421 -8
c95 -69 91 -186 -8 -255 -24 -17 -50 -35 -58 -41 -11 -8 -4 -24 32 -80 l45
-70 -22 -17 c-11 -10 -24 -18 -28 -18 -11 0 -252 391 -246 400 9 14 124 82
164 97 43 15 86 10 121 -16z m7867 -292 c90 -65 92 -67 73 -84 -19 -17 -22
-16 -75 21 -31 22 -64 45 -74 52 -17 11 -22 7 -55 -39 -21 -28 -40 -57 -42
-64 -3 -8 19 -30 53 -55 61 -44 68 -56 41 -73 -13 -9 -28 -2 -72 31 -30 23
-57 42 -60 42 -5 0 -73 -89 -89 -117 -5 -7 22 -33 73 -70 79 -57 80 -58 61
-77 -19 -18 -21 -18 -120 55 -56 40 -100 78 -97 85 4 11 134 194 228 322 25
33 43 50 51 45 7 -4 53 -37 104 -74z m-8467 -60 c0 -4 -28 -29 -62 -55 -35
-26 -67 -51 -72 -55 -13 -11 83 -132 97 -121 7 5 33 25 58 45 53 42 60 44 76
19 10 -17 4 -24 -48 -63 -32 -24 -59 -48 -59 -52 0 -5 21 -35 46 -68 31 -40
50 -57 57 -51 7 4 42 32 79 60 66 52 67 52 82 31 14 -21 11 -24 -87 -101 -81
-63 -103 -76 -113 -66 -25 26 -274 353 -274 360 0 4 44 41 98 82 86 65 98 72
110 58 6 -9 12 -19 12 -23z m4328 -372 c231 -437 378 -895 434 -1347 20 -164
17 -633 -5 -800 -94 -694 -333 -1321 -902 -2360 -65 -118 -178 -325 -252 -460
-451 -825 -658 -1335 -745 -1835 -19 -112 -22 -167 -23 -390 0 -283 13 -392
70 -590 74 -258 217 -548 369 -749 85 -114 132 -197 170 -305 26 -74 30 -101
30 -191 1 -85 -4 -118 -23 -173 -29 -86 -106 -201 -174 -263 -226 -203 -587
-312 -729 -219 -295 193 -791 646 -1015 926 -312 391 -485 766 -593 1284 -63
305 -90 578 -90 921 0 676 126 1195 382 1575 35 52 138 195 229 319 811 1106
1499 2140 1971 2965 457 797 758 1491 785 1809 7 84 3 88 111 -117z m-4606 53
c37 -37 40 -43 36 -87 -3 -27 -8 -55 -12 -64 -6 -13 14 -22 109 -53 100 -32
115 -39 104 -52 -30 -36 -46 -36 -154 2 l-104 36 -31 -22 -30 -22 42 -49 c24
-28 53 -63 65 -78 l23 -28 -23 -21 -23 -22 -152 175 c-84 96 -152 179 -152
184 0 9 121 110 155 129 11 6 40 12 64 12 37 0 49 -5 83 -40z m9183 17 c50
-28 89 -97 79 -142 -9 -42 -31 -71 -70 -96 -37 -22 -161 -48 -236 -49 -27 0
-48 -4 -48 -9 0 -4 28 -32 63 -61 34 -30 66 -57 71 -61 11 -9 -11 -39 -28 -39
-6 0 -55 39 -109 87 -96 83 -98 86 -80 104 13 13 45 21 118 29 55 6 123 17
150 25 60 17 108 62 108 100 0 38 -42 75 -91 82 -32 4 -41 10 -45 29 -4 22 -1
24 37 24 24 0 58 -10 81 -23z m303 -281 c114 -59 107 -179 -17 -306 -116 -118
-225 -133 -292 -39 -48 68 -18 163 87 265 85 84 162 111 222 80z m-9837 -52
c48 -24 128 -103 150 -147 32 -62 34 -124 7 -176 -73 -140 -231 -148 -354 -19
-124 129 -110 282 31 350 47 22 115 19 166 -8z m10156 -269 c34 -23 63 -74 63
-114 0 -53 -35 -115 -101 -176 -124 -114 -220 -130 -289 -47 -56 68 -36 155
56 247 106 105 200 136 271 90z m-10565 -49 c4 -20 -2 -26 -34 -41 -44 -19
-78 -66 -78 -108 0 -94 150 -226 243 -214 51 7 95 49 103 99 6 34 10 38 36 38
29 0 30 -1 24 -37 -16 -88 -101 -163 -186 -163 -126 0 -280 147 -280 267 0 59
57 143 115 169 43 19 52 17 57 -10z m10871 -318 c4 -12 2 -25 -2 -28 -5 -3
-70 -21 -145 -40 -75 -19 -136 -37 -136 -41 0 -3 16 -27 36 -52 l37 -47 49 36
c48 34 51 35 70 18 19 -18 19 -19 -28 -60 -48 -41 -48 -41 -31 -67 16 -25 16
-27 -5 -38 -18 -10 -24 -8 -38 12 l-18 23 -43 -38 -43 -37 -18 23 c-10 13 -18
25 -18 28 0 3 18 18 40 34 22 17 40 32 40 35 0 3 -27 40 -59 80 -58 72 -59 75
-40 89 21 14 287 89 325 91 14 1 24 -6 27 -21z m-11086 -79 c53 -26 139 -102
160 -142 20 -40 19 -126 -2 -168 -29 -58 -96 -141 -109 -136 -9 4 -329 243
-365 273 -2 2 13 25 32 51 98 133 185 170 284 122z m-310 -380 c44 -27 67 -72
60 -119 l-5 -37 114 -5 c63 -3 117 -8 120 -11 3 -3 -2 -17 -12 -32 l-17 -27
-117 7 -116 7 -17 -26 c-10 -15 -16 -30 -13 -35 3 -4 39 -30 81 -57 41 -27 75
-51 75 -54 0 -3 -9 -15 -18 -28 l-18 -24 -197 130 -196 129 52 79 c29 43 68
89 86 101 42 29 93 29 138 2z m11606 -235 c-10 -7 -20 -13 -23 -14 -3 0 -29
35 -57 78 l-53 77 22 18 c21 17 21 17 75 -64 51 -76 53 -82 36 -95z m-11786
-240 c120 -25 224 -47 231 -50 10 -3 10 -10 -2 -33 l-16 -29 -57 13 c-32 7
-61 11 -64 9 -4 -2 -26 -36 -48 -75 l-41 -71 41 -48 c37 -43 39 -51 28 -72 -6
-12 -13 -25 -15 -27 -3 -3 -32 28 -229 242 l-108 118 16 35 c9 18 23 34 31 34
9 0 113 -21 233 -46z m12237 -11 l18 -38 -127 -122 c-70 -68 -124 -123 -119
-123 5 1 83 18 174 39 l165 38 18 -34 c10 -19 17 -38 15 -43 -2 -5 -90 -65
-196 -134 l-192 -125 -17 25 c-9 15 -12 28 -7 33 5 5 81 54 168 110 88 55 157
101 155 101 -3 0 -76 -16 -163 -35 -88 -19 -165 -35 -173 -35 -7 0 -19 11 -25
26 -11 24 -6 31 118 156 94 94 119 125 94 112 -19 -9 -102 -48 -185 -85 l-150
-68 -13 25 c-8 14 -11 28 -8 31 10 10 401 181 417 182 8 1 23 -15 33 -36z
m-4844 -513 c278 -599 301 -649 368 -815 468 -1162 517 -2291 140 -3245 -172
-436 -452 -887 -700 -1126 -233 -224 -490 -324 -803 -311 -687 28 -1214 649
-1100 1299 20 117 48 204 111 341 109 242 232 444 659 1087 166 250 329 498
362 550 564 892 805 1625 779 2370 -3 102 -9 205 -12 230 -4 25 -4 43 -2 40 3
-3 92 -192 198 -420z m-7583 145 l202 -98 -15 -29 c-8 -16 -18 -27 -22 -24
-20 11 -185 86 -191 86 -9 0 -86 -169 -80 -174 2 -2 46 -25 97 -50 50 -25 92
-50 92 -54 -1 -4 -6 -17 -13 -29 -12 -22 -14 -21 -222 79 -116 55 -211 101
-213 103 -6 5 21 55 30 55 5 0 45 -18 89 -41 45 -22 82 -39 84 -37 2 2 21 43
44 91 l40 88 -84 39 c-47 22 -85 44 -85 50 0 21 22 52 33 47 7 -3 103 -49 214
-102z m12723 -224 c28 -62 50 -115 48 -116 -2 -2 -13 -5 -26 -7 -21 -3 -28 7
-59 79 l-36 82 -56 -26 c-31 -14 -62 -27 -68 -30 -18 -7 -17 -13 17 -87 29
-65 29 -66 8 -77 -24 -13 -27 -10 -58 61 -13 30 -27 59 -31 63 -5 7 -132 -43
-146 -57 -2 -2 14 -42 36 -89 39 -85 40 -87 19 -98 -11 -6 -24 -7 -28 -2 -14
15 -103 223 -97 229 7 7 421 193 424 191 1 -1 25 -53 53 -116z m149 -357 c48
-132 37 -204 -35 -239 -56 -27 -138 -11 -161 30 -6 11 -27 -9 -83 -80 -41 -52
-78 -95 -81 -95 -3 0 -10 15 -16 33 -10 33 -8 37 64 123 47 58 71 94 67 104
-3 8 -9 23 -11 33 -6 20 -10 19 -121 -23 -69 -27 -73 -27 -82 -10 -6 10 -10
25 -10 32 0 8 85 46 213 95 116 44 215 81 218 82 4 1 20 -38 38 -85z m-13161
-163 c-17 -47 -32 -88 -34 -89 -7 -9 -44 11 -44 23 0 7 14 49 31 94 29 77 31
80 54 69 l24 -11 -31 -86z m13239 -236 c50 -21 72 -42 94 -90 19 -42 25 -130
10 -154 -6 -10 -13 -11 -27 -3 -15 8 -19 22 -19 66 0 69 -25 106 -84 125 -37
12 -51 11 -109 -3 -168 -41 -227 -143 -141 -241 28 -31 29 -36 16 -55 l-14
-20 -27 21 c-64 50 -85 162 -46 239 49 97 240 160 347 115z m-13431 -241 c121
-42 220 -78 222 -79 2 -2 -2 -21 -8 -44 l-11 -41 -62 -1 c-34 -1 -113 -4 -176
-8 l-114 -6 149 -85 149 -85 -3 -35 c-1 -19 -7 -39 -12 -44 -5 -5 -105 8 -239
30 l-230 39 6 25 c3 14 8 27 10 30 2 2 77 -8 166 -24 89 -15 176 -30 192 -32
19 -4 -19 24 -105 74 -180 107 -174 101 -162 133 10 25 15 26 103 32 51 4 128
7 173 7 44 0 76 4 71 8 -6 5 -82 32 -170 60 -88 29 -166 56 -173 60 -9 6 -11
18 -6 35 3 15 7 27 9 27 1 0 101 -34 221 -76z m13613 -181 c11 -43 36 -144 45
-186 6 -26 5 -28 -21 -25 -26 3 -29 8 -47 86 l-19 84 -36 -7 c-67 -12 -111
-26 -111 -35 0 -5 7 -39 15 -76 9 -36 15 -68 13 -69 -2 -1 -13 -5 -25 -9 -19
-6 -23 -1 -39 70 l-18 76 -41 -6 c-71 -12 -115 -26 -115 -39 0 -7 9 -46 20
-87 25 -96 25 -100 -5 -100 -27 0 -26 -1 -64 159 -11 47 -19 87 -16 89 3 3
425 108 447 111 4 1 12 -16 17 -36z m-13729 -399 c113 -20 207 -37 209 -39 1
-2 -7 -60 -19 -128 -21 -113 -25 -124 -42 -119 -28 7 -30 18 -14 107 8 44 13
82 11 84 -8 8 -140 29 -146 23 -3 -4 -11 -38 -17 -76 -6 -37 -13 -70 -14 -72
-2 -2 -14 0 -27 3 -20 5 -22 10 -16 37 3 17 9 52 12 77 l5 46 -77 15 c-55 11
-78 12 -80 4 -2 -6 -9 -42 -15 -81 -17 -103 -17 -103 -46 -97 -21 4 -24 9 -20
31 3 14 13 67 21 116 21 117 20 116 47 110 13 -2 115 -21 228 -41z m13830 -60
c20 -126 -3 -200 -78 -251 -43 -28 -130 -46 -203 -41 -102 7 -159 71 -185 208
-9 45 -14 83 -12 85 6 5 402 73 434 74 l31 1 13 -76z m-4100 -494 c246 -426
359 -646 433 -845 344 -914 290 -1944 -148 -2815 -69 -137 -192 -340 -286
-472 -598 -834 -1507 -1355 -2544 -1459 -154 -15 -521 -14 -574 2 -52 16 -115
69 -144 123 -33 64 -31 166 6 229 33 56 44 64 272 199 970 575 1738 1353 2223
2253 309 574 498 1203 564 1880 16 169 16 711 0 880 -13 129 -48 397 -59 445
-5 24 -5 24 9 5 8 -11 120 -202 248 -425z m-9825 145 c116 -14 216 -25 224
-25 11 0 13 -14 7 -72 -10 -105 -24 -148 -61 -185 -27 -27 -41 -33 -76 -33
-56 0 -106 30 -125 76 -17 41 -14 41 -139 -17 -47 -21 -88 -39 -91 -39 -3 0
-4 16 -2 36 3 35 4 36 111 81 l107 45 0 38 0 38 -77 6 c-107 10 -113 12 -113
47 0 17 5 29 13 29 6 0 106 -11 222 -25z m13997 -135 c4 -36 9 -91 13 -122 6
-57 5 -58 -19 -58 -26 0 -26 0 -42 129 l-6 53 -46 -6 c-24 -3 -58 -6 -74 -6
l-30 0 4 -82 c3 -79 2 -83 -19 -86 -19 -3 -22 3 -28 55 -12 108 -9 105 -63 98
-26 -3 -61 -8 -79 -11 l-31 -5 6 -57 c13 -110 10 -137 -15 -140 -14 -2 -23 2
-24 10 0 7 -6 65 -13 128 -7 63 -12 117 -10 119 6 7 395 49 434 48 l35 -2 7
-65z m-13917 -327 c105 -55 142 -157 95 -260 -21 -46 -26 -49 -52 -29 -16 12
-16 15 4 54 25 53 18 103 -21 143 -34 33 -87 49 -169 49 -113 0 -172 -44 -172
-129 0 -27 7 -56 16 -69 15 -22 15 -24 -2 -37 -28 -21 -33 -19 -54 28 -23 49
-24 97 -6 150 19 52 42 75 101 104 43 21 61 24 135 20 61 -2 96 -9 125 -24z
m13543 -70 c-27 -62 -21 -128 17 -160 58 -51 111 -16 144 94 25 85 51 119 96
132 123 34 203 -109 138 -246 -17 -37 -22 -39 -47 -20 -16 12 -16 15 -2 42 23
44 21 120 -4 145 -25 25 -64 26 -89 1 -10 -10 -28 -51 -40 -91 -29 -94 -43
-115 -93 -135 -102 -40 -188 34 -188 164 0 64 12 105 37 134 15 16 18 16 34 1
16 -15 16 -18 -3 -61z m-13440 -495 c2 -124 2 -128 -18 -128 -30 0 -38 27 -39
128 l-1 62 -75 0 -75 0 0 -80 c0 -79 0 -80 -25 -80 -25 0 -25 1 -25 80 l0 81
-82 -3 -83 -3 3 -97 4 -98 -31 0 -31 0 0 130 0 129 123 4 c67 1 174 3 237 2
l115 0 3 -127z m13687 -93 c67 -18 118 -52 140 -95 19 -37 19 -103 0 -140 -14
-26 -18 -28 -35 -17 -13 7 -18 18 -14 27 4 8 9 32 12 53 3 30 -1 44 -19 64
-28 30 -78 53 -114 53 l-26 0 20 -25 c44 -57 34 -137 -22 -177 -43 -31 -137
-32 -185 -3 -87 52 -98 186 -19 238 59 38 165 47 262 22z m-13675 -282 c-1
-154 -43 -220 -157 -243 -136 -29 -240 6 -283 95 -18 38 -47 201 -37 211 4 4
351 31 415 33 l62 1 0 -97z m13650 -129 c124 -39 177 -129 135 -230 -10 -25
-20 -34 -32 -32 -18 4 -19 9 -7 81 4 26 1 45 -11 63 -17 26 -86 63 -118 64
-16 0 -16 -2 -3 -22 59 -94 -3 -198 -119 -198 -95 0 -165 62 -165 147 0 53 19
94 56 118 52 34 171 38 264 9z m-13610 -251 c0 -5 7 -51 15 -103 20 -133 20
-140 -9 -140 -23 0 -25 5 -37 90 -10 75 -15 90 -28 86 -9 -3 -42 -8 -73 -12
-57 -6 -58 -7 -57 -38 0 -17 4 -52 8 -78 6 -37 5 -48 -6 -53 -35 -13 -41 -5
-48 63 -4 38 -10 73 -13 79 -7 10 -144 -5 -155 -17 -3 -3 1 -45 9 -95 7 -49
12 -90 11 -91 -1 -1 -12 -5 -24 -8 -26 -8 -25 -10 -47 144 -8 57 -13 106 -10
109 3 4 403 66 452 70 6 0 12 -2 12 -6z m13531 -146 c121 -29 185 -92 175
-171 -6 -47 -31 -84 -77 -111 -26 -15 -51 -20 -109 -19 -141 1 -259 57 -279
130 -21 76 24 160 94 177 40 10 141 6 196 -6z m-13496 -259 c55 -43 80 -143
54 -217 -11 -31 -23 -37 -47 -22 -10 6 -11 17 -2 52 22 87 -26 160 -91 137
-31 -11 -43 -39 -54 -128 -13 -102 -56 -150 -134 -150 -59 0 -102 26 -126 76
-47 97 -18 273 34 210 10 -11 10 -24 0 -54 -16 -55 -4 -109 32 -145 25 -24 35
-28 62 -23 46 9 63 35 76 121 6 42 18 89 26 105 31 59 118 79 170 38z m13393
-153 c81 -19 133 -46 167 -87 24 -29 27 -38 23 -90 -3 -47 -10 -64 -32 -87
-57 -59 -193 -61 -319 -4 -99 45 -134 110 -102 191 35 86 120 111 263 77z
m-97 -465 c14 0 10 -29 -14 -110 -23 -72 -38 -89 -64 -72 -17 11 37 194 55
187 8 -3 18 -5 23 -5z m-13161 -39 c51 -26 80 -74 80 -132 0 -46 -2 -49 -25
-49 -23 0 -25 4 -25 43 -1 77 -39 101 -155 98 l-40 -1 36 -30 c86 -70 62 -184
-47 -226 -81 -31 -161 -4 -196 67 -43 83 -10 155 92 207 104 52 204 60 280 23z
m139 -391 c44 -22 81 -86 81 -138 0 -27 -4 -32 -25 -32 -20 0 -25 5 -25 24 0
72 -45 111 -126 109 -71 -2 -83 -11 -45 -34 59 -36 78 -116 42 -175 -37 -60
-147 -90 -211 -57 -79 41 -107 150 -55 212 79 93 268 141 364 91z m12680 -110
c48 -90 68 -119 80 -116 84 26 284 76 287 73 4 -3 -5 -29 -21 -64 -4 -9 -301
-81 -306 -75 -4 4 -37 59 -73 124 -61 109 -64 118 -53 147 6 17 14 31 17 31 3
0 34 -54 69 -120z m99 -217 c94 -37 172 -71 172 -75 0 -4 -4 -18 -9 -31 l-10
-25 -218 86 c-120 47 -219 86 -221 87 -1 1 3 16 9 33 l11 31 46 -19 c26 -10
125 -50 220 -87z m-12598 -58 c36 -35 54 -85 46 -131 -15 -75 -142 -161 -273
-186 -53 -10 -65 -9 -99 8 -72 36 -104 117 -70 183 44 84 200 164 309 158 47
-3 62 -8 87 -32z m12545 -202 l121 -58 -16 -38 -15 -37 -219 0 c-121 0 -216
-4 -210 -8 5 -5 25 -15 44 -22 19 -8 95 -42 168 -76 131 -63 132 -63 120 -88
-6 -14 -14 -26 -18 -26 -12 0 -420 199 -420 204 0 3 8 21 17 41 l17 35 215 1
c164 0 210 3 191 11 -65 28 -306 143 -314 150 -6 4 -5 17 2 32 l11 25 93 -43
c51 -24 147 -70 213 -103z m-12410 -153 c8 0 30 -14 50 -31 101 -89 45 -213
-135 -298 -74 -35 -151 -41 -200 -16 -34 17 -70 81 -70 121 0 85 137 197 274
224 23 4 47 6 54 4 8 -2 20 -4 27 -4z m12047 -238 c171 -99 198 -126 198 -199
0 -107 -104 -204 -192 -178 -19 6 -268 142 -316 173 -19 13 6 65 27 57 9 -3
78 -42 155 -87 93 -54 149 -80 172 -81 61 -2 112 73 92 135 -10 29 -40 50
-213 148 -60 35 -112 64 -114 66 -4 4 27 54 34 54 2 0 73 -40 157 -88z m-263
-382 c23 -17 46 -43 52 -58 18 -45 5 -117 -30 -174 -18 -28 -28 -54 -24 -57 5
-3 37 -25 71 -49 62 -42 62 -43 46 -67 -9 -14 -18 -25 -20 -25 -3 0 -92 59
-200 130 l-195 131 53 75 c88 128 161 156 247 94z m-11584 -89 c44 -70 46 -76
29 -88 -10 -7 -21 -13 -24 -13 -7 0 -100 144 -100 155 0 12 34 34 41 27 3 -4
27 -40 54 -81z m501 -313 c103 -132 109 -219 23 -308 -111 -114 -221 -137
-316 -67 -40 29 -127 136 -118 145 23 24 352 281 360 281 6 1 29 -23 51 -51z
m10584 -89 c10 -18 4 -29 -44 -87 l-56 -67 52 -47 c29 -26 58 -48 64 -48 6 0
31 25 54 55 23 30 46 55 49 55 4 0 15 -6 25 -13 16 -12 14 -18 -34 -75 -29
-35 -51 -64 -49 -65 2 -2 29 -24 60 -50 31 -26 59 -47 61 -47 3 0 31 32 62 70
57 70 75 81 94 57 8 -9 -9 -37 -69 -110 -44 -53 -83 -97 -87 -97 -4 0 -87 66
-185 146 -161 133 -177 148 -165 164 34 48 144 179 150 180 4 0 12 -9 18 -21z
m-10255 -306 c100 -109 100 -110 73 -124 -20 -11 -27 -6 -82 55 l-61 66 -58
-51 -57 -51 50 -55 c27 -30 50 -58 50 -63 0 -4 -7 -14 -16 -21 -15 -12 -23 -7
-69 45 l-53 59 -61 -54 -61 -53 27 -31 c15 -16 45 -49 67 -72 33 -36 37 -44
26 -58 -23 -27 -20 -29 -164 132 l-37 42 173 155 c95 86 175 156 178 156 3 0
37 -35 75 -77z m10028 -47 c18 -7 45 -28 61 -46 24 -30 27 -40 24 -89 l-3 -56
100 -21 c138 -28 132 -25 104 -57 l-24 -28 -113 28 -112 27 -27 -27 -27 -27
74 -69 75 -69 -22 -23 -22 -22 -83 76 c-46 41 -123 113 -173 160 l-89 83 49
57 c61 71 114 108 168 116 4 0 22 -5 40 -13z m-9759 -229 c40 -31 71 -79 81
-124 6 -31 5 -33 -23 -33 -25 0 -30 5 -35 29 -4 16 -20 45 -38 65 -38 44 -88
50 -113 14 -23 -32 -20 -47 19 -129 38 -80 43 -124 20 -170 -32 -61 -121 -87
-184 -54 -44 22 -107 100 -119 147 -13 49 -9 58 24 58 17 0 24 -5 24 -20 0
-35 39 -100 73 -120 42 -26 70 -25 103 3 35 31 34 64 -5 147 -43 91 -42 141 4
187 33 33 39 35 85 31 32 -3 61 -14 84 -31z m9463 -127 c88 -39 183 -168 183
-248 0 -66 -50 -146 -113 -178 -156 -82 -398 151 -333 319 41 107 158 155 263
107z m-9170 -155 c127 -114 137 -220 30 -341 -107 -123 -222 -123 -360 -1
l-47 42 152 177 c84 98 155 178 158 178 3 0 33 -25 67 -55z m8773 -135 c0 -25
-4 -30 -25 -30 -93 0 -144 -105 -96 -198 48 -92 124 -152 195 -152 44 0 102
47 111 91 5 21 11 29 22 25 8 -3 19 -6 24 -6 27 0 -2 -79 -43 -116 -87 -80
-201 -70 -296 27 -82 84 -116 204 -78 277 21 40 69 82 112 97 61 22 74 19 74
-15z m-8369 -192 c99 -72 99 -72 79 -92 -19 -20 -20 -20 -80 28 -34 26 -67 49
-74 52 -12 5 -96 -95 -96 -113 0 -4 27 -27 60 -51 52 -38 58 -46 50 -63 -13
-24 -21 -24 -51 -1 -13 10 -40 30 -60 45 l-36 27 -42 -55 c-23 -30 -44 -61
-46 -67 -2 -7 29 -38 70 -68 41 -30 75 -58 75 -61 0 -3 -8 -13 -17 -21 -17
-14 -26 -9 -120 62 l-102 78 140 186 c76 102 142 186 145 186 3 0 50 -32 105
-72z m8025 -117 c50 -23 108 -89 141 -159 49 -104 16 -193 -99 -277 -34 -25
-65 -45 -69 -45 -8 0 -255 348 -264 372 -11 29 165 127 230 127 11 1 38 -8 61
-18z m-7571 -210 c89 -40 120 -121 72 -192 -40 -59 -93 -85 -266 -129 l-44
-12 69 -43 c111 -69 109 -67 87 -88 -19 -16 -24 -14 -119 44 -122 75 -129 81
-116 105 7 13 39 26 104 43 166 42 230 81 244 148 5 26 1 37 -19 57 -21 21
-36 26 -75 26 -36 0 -52 4 -56 16 -10 26 -7 32 17 37 44 8 63 6 102 -12z
m7165 -34 c36 -18 70 -74 70 -115 0 -19 -9 -49 -20 -66 l-19 -32 104 -55 c58
-30 105 -56 105 -59 0 -3 -13 -13 -29 -23 l-30 -17 -99 56 c-99 55 -100 55
-131 39 -17 -8 -31 -18 -31 -20 0 -3 17 -33 38 -67 68 -110 66 -105 34 -122
l-28 -15 -122 202 -122 202 38 23 c69 44 157 82 187 82 17 0 41 -6 55 -13z
m-6773 -188 c47 -29 66 -71 61 -134 -8 -97 -96 -243 -169 -281 -62 -32 -147
-5 -181 57 -26 46 -18 121 20 203 70 150 177 212 269 155z m6442 -203 l174
-174 -27 -18 -27 -17 -47 46 -46 46 -79 -41 -79 -41 7 -36 c3 -20 8 -48 11
-62 4 -20 0 -28 -22 -38 -15 -6 -28 -10 -30 -9 -4 4 -85 481 -81 483 6 6 63
34 67 35 3 0 83 -78 179 -174z m-6072 17 c20 -9 44 -30 55 -47 64 -103 -55
-369 -175 -391 -45 -9 -119 23 -144 61 -39 61 -10 197 65 304 59 84 125 108
199 73z m5683 -209 c50 -114 90 -211 90 -214 0 -7 -51 -33 -55 -28 -1 2 -22
47 -45 101 -24 53 -45 97 -47 97 -18 0 -173 -76 -173 -84 1 -6 18 -51 40 -101
36 -83 38 -91 22 -103 -9 -7 -23 -11 -31 -10 -8 2 -54 94 -104 212 -86 198
-90 209 -72 222 10 8 24 14 31 14 6 0 28 -40 49 -89 l37 -89 81 35 c45 20 86
39 91 44 5 4 -7 45 -28 94 -21 48 -36 88 -34 90 6 6 53 23 56 20 1 -1 43 -96
92 -211z m-5290 21 c0 -5 -47 -57 -105 -115 l-106 -106 61 -22 61 -22 25 55
c25 59 30 62 58 42 15 -11 16 -16 3 -47 -29 -71 -30 -77 -2 -84 26 -7 31 -21
17 -44 -7 -10 -15 -10 -36 -3 -29 12 -24 16 -56 -64 -10 -26 -25 -31 -50 -15
-13 8 -13 15 2 57 9 25 15 50 13 53 -2 4 -43 22 -90 40 -47 18 -85 37 -85 43
0 6 57 68 126 138 112 113 129 126 145 116 11 -7 19 -16 19 -22z m1073 -281
c173 -39 232 -115 207 -263 -30 -178 -121 -235 -316 -199 -51 9 -63 15 -60 27
3 9 23 114 46 234 23 119 44 217 47 217 2 0 36 -7 76 -16z m2737 -12 c0 -27
-2 -29 -86 -45 -48 -9 -88 -18 -90 -20 -8 -7 20 -139 31 -143 6 -3 41 2 79 10
58 12 68 12 73 0 11 -29 -7 -41 -76 -53 -40 -7 -71 -18 -71 -24 1 -21 28 -138
33 -143 3 -3 42 2 87 11 89 18 110 16 110 -13 0 -16 -16 -22 -107 -41 -165
-32 -145 -51 -186 167 -20 103 -39 206 -43 229 l-6 41 53 11 c30 6 83 17 119
25 36 8 68 14 73 15 4 1 7 -12 7 -27z m-362 -69 c-3 -26 -7 -29 -65 -36 -75
-10 -72 11 -38 -238 13 -100 24 -184 22 -185 -1 -1 -15 -4 -32 -6 l-30 -3 -27
203 c-14 112 -28 205 -30 208 -2 2 -31 -1 -63 -6 -62 -10 -75 -5 -75 31 0 13
28 20 153 36 204 28 189 28 185 -4z m-3013 2 c28 -9 67 -20 88 -26 37 -10 51
-39 27 -54 -11 -7 -158 32 -173 46 -7 5 -1 49 6 49 1 0 25 -7 52 -15z m3968
-17 c8 -28 3 -30 -95 -57 -66 -18 -82 -20 -89 -9 -17 27 -8 37 49 53 31 9 68
20 82 25 39 13 47 12 53 -12z m-2764 -40 c12 -59 81 -430 81 -436 0 -2 -15 -2
-32 0 -32 3 -33 5 -43 63 -12 67 -2 61 -141 79 l-50 6 -23 -55 c-22 -52 -25
-55 -58 -55 -19 0 -33 3 -30 8 2 4 48 105 103 224 l99 218 42 0 42 0 10 -52z
m423 11 c21 -5 50 -20 64 -32 26 -22 26 -22 6 -40 -19 -17 -22 -17 -45 -2 -66
43 -151 37 -163 -11 -12 -47 3 -71 58 -96 29 -13 70 -32 92 -43 102 -53 97
-188 -7 -236 -69 -31 -166 -20 -223 26 -28 22 -28 25 -12 41 17 17 20 17 60
-6 62 -35 133 -33 164 4 50 58 26 100 -91 155 -96 45 -121 76 -112 143 12 87
101 128 209 97z m938 -218 c49 -124 88 -226 86 -228 -1 -1 -16 -6 -33 -9 -29
-6 -30 -4 -52 56 l-23 62 -45 -6 c-25 -3 -65 -6 -89 -6 l-43 0 -13 -62 c-14
-60 -16 -63 -46 -66 -18 -2 -32 -1 -32 1 0 7 110 460 115 475 3 9 19 12 45 10
l41 -3 89 -224z m-640 110 c0 -55 4 -102 9 -105 5 -4 47 41 93 99 79 100 85
105 121 105 l38 0 -86 -105 c-48 -58 -85 -111 -82 -118 3 -6 43 -63 91 -125
47 -62 86 -115 86 -118 0 -2 -17 -4 -38 -4 -37 0 -40 3 -130 125 -51 69 -94
125 -95 125 -1 0 -1 -56 1 -125 l3 -125 -35 0 -36 0 0 235 0 235 30 0 30 0 0
-99z"/>
<path d="M8556 15060 c-3 -8 -24 -60 -45 -115 l-39 -100 27 -6 c14 -4 45 -7
69 -8 34 -1 42 2 42 17 -1 40 -48 226 -54 212z"/>
<path d="M7230 15049 c0 -2 -11 -57 -24 -123 l-23 -118 71 7 c39 4 72 8 73 9
3 3 -86 218 -92 225 -3 2 -5 2 -5 0z"/>
<path d="M6730 14992 c-19 -2 -39 -7 -43 -12 -8 -7 48 -348 58 -358 2 -2 27 1
54 8 36 8 59 22 81 46 27 31 30 42 30 98 0 78 -22 155 -54 185 -27 26 -74 38
-126 33z"/>
<path d="M10446 14477 c-72 -185 -72 -178 -4 -198 88 -28 161 27 198 150 34
111 11 161 -91 204 l-37 15 -66 -171z"/>
<path d="M11623 13901 c-51 -82 -93 -153 -93 -158 0 -16 85 -53 121 -53 50 0
94 32 138 100 43 66 57 122 42 161 -10 27 -87 99 -105 99 -6 0 -53 -67 -103
-149z"/>
<path d="M4214 14016 c-28 -13 -54 -28 -57 -33 -3 -5 17 -45 45 -90 l50 -81
34 20 c40 23 84 73 84 95 0 30 -33 84 -61 98 -36 19 -35 19 -95 -9z"/>
<path d="M3312 13351 c-22 -16 -43 -35 -47 -41 -7 -11 90 -130 106 -130 4 0
26 17 49 38 50 48 55 94 14 136 -35 34 -71 33 -122 -3z"/>
<path d="M12855 13062 c-57 -42 -139 -131 -155 -170 -17 -43 -4 -82 33 -100
23 -11 33 -10 69 6 54 24 172 147 188 197 11 33 10 40 -7 64 -29 39 -78 40
-128 3z"/>
<path d="M2966 13031 c-39 -26 -55 -57 -56 -106 0 -56 48 -123 134 -186 65
-48 145 -37 187 27 37 57 19 121 -58 199 -81 81 -150 103 -207 66z"/>
<path d="M13170 12763 c-54 -26 -176 -152 -185 -191 -8 -40 14 -79 50 -88 84
-21 284 174 256 249 -18 47 -62 58 -121 30z"/>
<path d="M2373 12319 c-40 -11 -107 -87 -93 -104 6 -7 71 -59 146 -115 l136
-103 24 29 c32 40 47 89 39 130 -7 41 -62 100 -126 137 -55 31 -85 37 -126 26z"/>
<path d="M2068 11921 c-18 -16 -41 -42 -50 -59 l-18 -29 72 -48 c55 -37 73
-44 80 -33 43 66 49 80 46 115 -2 30 -10 42 -37 60 -44 30 -54 29 -93 -6z"/>
<path d="M1858 11443 c62 -71 120 -128 126 -122 2 2 18 30 36 61 24 43 28 59
18 63 -7 2 -56 14 -108 25 -52 12 -101 23 -109 26 -7 2 9 -22 37 -53z"/>
<path d="M14558 10528 l-77 -29 16 -42 c18 -47 48 -84 74 -92 10 -3 34 1 53 9
50 21 61 54 41 122 -8 29 -19 55 -23 57 -4 3 -42 -9 -84 -25z"/>
<path d="M14806 9249 c-87 -16 -161 -30 -163 -32 -8 -9 17 -92 35 -116 27 -37
60 -51 123 -51 111 0 197 45 213 112 3 14 3 47 0 72 -8 55 7 54 -208 15z"/>
<path d="M1146 8845 c-3 -9 -6 -39 -6 -66 0 -63 31 -99 85 -99 44 0 72 27 80
77 3 21 8 48 11 60 4 20 -1 22 -53 28 -32 3 -70 8 -84 11 -18 4 -28 0 -33 -11z"/>
<path d="M14810 7750 c-68 -16 -93 -88 -45 -135 20 -21 34 -25 85 -25 87 0
117 34 90 104 -22 59 -55 73 -130 56z"/>
<path d="M1250 7554 c-8 -2 -88 -8 -177 -15 l-163 -12 0 -36 c0 -49 28 -101
69 -128 66 -44 209 -27 268 32 30 30 33 38 33 93 0 62 -4 70 -30 66z"/>
<path d="M14753 7340 c-50 -20 -57 -99 -11 -133 15 -11 49 -22 77 -25 44 -4
53 -1 76 23 23 22 26 32 22 62 -9 56 -41 83 -96 82 -25 0 -56 -4 -68 -9z"/>
<path d="M14700 6937 c-14 -7 -31 -25 -38 -40 -32 -66 55 -122 209 -134 90 -7
130 5 148 44 28 62 -33 112 -159 132 -86 14 -130 13 -160 -2z"/>
<path d="M14635 6533 c-75 -19 -78 -106 -4 -143 98 -51 253 -66 289 -30 30 30
27 83 -6 109 -49 39 -223 78 -279 64z"/>
<path d="M1267 5994 c-49 -26 -67 -48 -67 -86 0 -59 56 -88 130 -68 76 21 103
78 60 133 -33 42 -68 48 -123 21z"/>
<path d="M1399 5591 c-48 -30 -59 -46 -59 -87 0 -34 42 -74 77 -74 43 1 112
36 124 64 21 45 -15 102 -76 120 -14 4 -37 -4 -66 -23z"/>
<path d="M1693 5261 c-158 -57 -222 -125 -178 -188 31 -45 103 -38 222 19 79
39 116 77 116 119 0 65 -63 85 -160 50z"/>
<path d="M1915 4886 c-99 -32 -195 -97 -215 -146 -11 -28 -11 -34 7 -58 33
-44 91 -42 190 8 124 62 169 127 126 178 -24 28 -59 34 -108 18z"/>
<path d="M13650 4287 c-13 -7 -39 -32 -57 -56 l-33 -43 77 -54 c43 -30 82 -53
88 -51 5 2 23 30 40 61 27 53 28 60 15 83 -30 52 -90 80 -130 60z"/>
<path d="M2510 3794 c-74 -58 -139 -109 -143 -114 -15 -14 62 -89 104 -100 33
-9 47 -8 85 9 103 46 172 130 161 198 -5 29 -54 112 -67 113 -3 0 -66 -48
-140 -106z"/>
<path d="M12925 3389 c-25 -23 -45 -44 -45 -48 0 -4 28 -31 62 -61 l61 -54 39
43 c47 53 51 99 13 136 -37 38 -77 33 -130 -16z"/>
<path d="M12586 3059 c-80 -70 -44 -185 87 -280 67 -48 159 -34 192 31 30 59
13 117 -61 199 -78 87 -156 105 -218 50z"/>
<path d="M3416 2815 c-64 -74 -116 -139 -116 -144 0 -21 71 -64 113 -68 55 -6
89 11 146 72 46 50 71 99 71 141 0 34 -33 88 -69 114 l-28 19 -117 -134z"/>
<path d="M11863 2469 c-23 -11 -46 -26 -52 -33 -8 -9 15 -50 89 -157 55 -79
105 -146 110 -147 6 -2 28 11 50 28 83 65 74 162 -24 268 -60 65 -104 75 -173
41z"/>
<path d="M11463 2214 c-24 -14 -43 -28 -43 -30 0 -10 71 -134 79 -139 12 -7
98 51 111 75 14 27 7 58 -21 93 -27 35 -70 35 -126 1z"/>
<path d="M4730 2053 c-39 -27 -57 -52 -100 -138 -49 -96 -51 -146 -8 -178 53
-40 113 6 179 137 48 96 52 145 13 175 -32 25 -52 26 -84 4z"/>
<path d="M11094 1985 c3 -11 12 -60 21 -110 24 -137 17 -129 85 -92 33 18 60
35 60 38 0 3 -38 45 -85 95 -48 49 -84 80 -81 69z"/>
<path d="M5102 1856 c-35 -30 -84 -121 -106 -196 -20 -69 -9 -112 34 -130 25
-10 34 -9 62 7 46 26 120 171 126 246 4 49 2 56 -23 75 -36 28 -57 28 -93 -2z"/>
<path d="M6612 1214 c-19 -97 -31 -179 -28 -182 3 -3 30 -7 59 -10 97 -8 142
36 167 164 20 102 -10 166 -89 193 -76 25 -73 30 -109 -165z"/>
<path d="M7127 1183 c-26 -58 -45 -108 -43 -110 6 -7 130 -23 135 -18 6 6 -30
218 -38 228 -4 4 -28 -41 -54 -100z"/>
<path d="M8467 1250 c-4 -8 -16 -58 -27 -110 -12 -52 -23 -101 -26 -109 -3
-10 10 -12 68 -6 40 4 74 8 75 9 2 2 -19 58 -81 221 -2 5 -6 3 -9 -5z"/>
<path d="M9112 15501 c-8 -5 21 -13 75 -20 257 -35 731 -145 1041 -241 403
-124 811 -289 1192 -480 111 -56 135 -60 38 -7 -35 18 -76 41 -93 50 -75 41
-287 141 -398 187 -67 28 -135 57 -152 65 -78 35 -161 67 -242 94 -48 17 -153
53 -233 82 -80 28 -156 53 -170 56 -54 9 -116 27 -135 38 -11 7 -54 18 -95 25
-41 7 -84 18 -95 24 -11 5 -40 13 -65 17 -64 11 -122 25 -230 54 -58 16 -142
29 -215 34 -66 4 -133 13 -148 20 -33 13 -57 14 -75 2z"/>
<path d="M6800 15489 c-11 -7 3 -8 45 -3 33 3 62 8 64 10 10 9 -96 3 -109 -7z"/>
<path d="M6748 15473 c6 -2 18 -2 25 0 6 3 1 5 -13 5 -14 0 -19 -2 -12 -5z"/>
<path d="M6555 15456 c-33 -7 -76 -17 -95 -24 -19 -6 -48 -14 -64 -17 -15 -3
-26 -8 -24 -10 2 -2 80 11 173 29 124 25 156 34 120 34 -27 0 -77 -5 -110 -12z"/>
<path d="M6265 15385 c-39 -18 -22 -18 40 -1 41 12 44 14 20 15 -16 0 -43 -6
-60 -14z"/>
<path d="M6120 15354 c-116 -34 -229 -65 -270 -74 -25 -5 -70 -18 -100 -29
-30 -10 -111 -38 -180 -61 -69 -23 -147 -53 -175 -66 -59 -29 -72 -33 225 66
129 43 316 99 415 125 99 26 182 49 184 51 9 9 -56 1 -99 -12z"/>
<path d="M5285 15086 c-22 -6 -50 -17 -62 -24 -12 -6 -26 -12 -32 -12 -6 0
-53 -18 -103 -41 -303 -134 -435 -194 -448 -205 -8 -6 -55 -31 -105 -54 -84
-40 -255 -138 -255 -146 0 -2 42 19 93 47 222 122 554 278 812 381 176 71 196
81 100 54z"/>
<path d="M11530 14705 c0 -3 27 -18 60 -35 74 -37 79 -31 8 10 -51 29 -68 35
-68 25z"/>
<path d="M11670 14630 c17 -12 290 -174 311 -184 48 -25 -45 37 -141 93 -103
61 -209 118 -170 91z"/>
<path d="M4200 14566 c-80 -41 -187 -103 -232 -133 -24 -17 -97 -65 -163 -109
-119 -78 -482 -344 -520 -381 -11 -11 -69 -59 -128 -106 -108 -86 -387 -339
-521 -473 -115 -114 -396 -423 -467 -515 -37 -46 -83 -102 -103 -124 -34 -36
-185 -238 -291 -389 -22 -31 -58 -82 -80 -114 -23 -31 -72 -109 -110 -172 -38
-63 -89 -149 -114 -190 -74 -121 -176 -310 -167 -310 2 0 35 57 74 128 619
1126 1592 2135 2702 2802 143 86 181 111 170 109 -3 0 -25 -10 -50 -23z"/>
<path d="M12030 14416 c0 -2 42 -30 92 -63 108 -68 375 -256 498 -351 412
-320 794 -682 1127 -1069 110 -128 153 -169 63 -60 -240 290 -696 767 -772
808 -14 8 -85 64 -158 124 -160 134 -464 370 -543 422 -32 21 -100 66 -151 99
-93 62 -156 98 -156 90z"/>
<path d="M13916 12729 c88 -108 248 -324 349 -474 92 -135 125 -179 85 -110
-93 156 -439 625 -482 651 -7 4 15 -26 48 -67z"/>
<path d="M14479 11925 c5 -11 17 -29 26 -40 l16 -20 -10 20 c-5 11 -17 29 -26
40 l-16 20 10 -20z"/>
<path d="M1276 11515 c-19 -29 -67 -137 -63 -141 2 -2 22 35 45 81 42 85 48
107 18 60z"/>
<path d="M14782 11375 c12 -24 23 -43 26 -41 4 5 -36 86 -43 86 -3 0 5 -20 17
-45z"/>
<path d="M1178 11318 c-22 -35 -160 -349 -155 -354 2 -3 18 28 35 68 17 40 55
126 86 191 54 114 63 141 34 95z"/>
<path d="M14837 11262 c3 -12 9 -25 14 -28 14 -8 11 10 -6 32 -13 18 -14 18
-8 -4z"/>
<path d="M991 10899 c-12 -29 -20 -54 -18 -56 2 -2 14 20 26 48 12 29 20 54
18 56 -2 2 -14 -20 -26 -48z"/>
<path d="M956 10815 c-9 -26 -7 -32 5 -12 6 10 9 21 6 23 -2 3 -7 -2 -11 -11z"/>
<path d="M932 10760 c-7 -11 -12 -28 -11 -37 0 -11 7 -5 15 16 17 38 14 50 -4
21z"/>
<path d="M890 10649 c0 -2 -9 -29 -20 -59 -29 -78 -23 -88 6 -11 14 35 22 66
19 69 -3 3 -5 3 -5 1z"/>
<path d="M832 10485 c-7 -14 -12 -34 -11 -43 0 -9 7 1 15 22 16 45 13 59 -4
21z"/>
<path d="M806 10405 c-3 -9 -6 -22 -5 -28 0 -7 5 -1 10 12 5 13 8 26 5 28 -2
2 -6 -3 -10 -12z"/>
<path d="M771 10302 c-11 -33 -21 -65 -20 -73 0 -8 11 17 25 55 13 38 22 71
20 73 -2 2 -13 -23 -25 -55z"/>
<path d="M737 10196 c-4 -10 -7 -25 -6 -34 0 -11 4 -9 10 7 5 13 8 29 6 35 -2
5 -6 2 -10 -8z"/>
<path d="M706 10085 c-3 -9 -6 -24 -5 -33 0 -9 5 -4 10 12 9 32 6 48 -5 21z"/>
<path d="M666 9946 c-10 -29 -16 -61 -14 -72 2 -10 12 12 21 50 22 83 18 95
-7 22z"/>
<path d="M637 9826 c-4 -10 -7 -25 -6 -34 0 -11 4 -9 10 7 5 13 8 29 6 35 -2
5 -6 2 -10 -8z"/>
<path d="M611 9704 c0 -11 3 -14 6 -6 3 7 2 16 -1 19 -3 4 -6 -2 -5 -13z"/>
<path d="M601 9664 c0 -11 3 -14 6 -6 3 7 2 16 -1 19 -3 4 -6 -2 -5 -13z"/>
<path d="M582 9570 c0 -14 2 -19 5 -12 2 6 2 18 0 25 -3 6 -5 1 -5 -13z"/>
<path d="M562 9497 c-7 -19 -12 -49 -11 -68 1 -27 4 -20 15 30 16 72 14 87 -4
38z"/>
<path d="M532 9370 c-14 -23 -16 -80 -3 -80 9 0 26 88 19 95 -2 2 -9 -5 -16
-15z"/>
<path d="M512 9180 c0 -14 2 -19 5 -12 2 6 2 18 0 25 -3 6 -5 1 -5 -13z"/>
<path d="M502 9125 c0 -16 2 -22 5 -12 2 9 2 23 0 30 -3 6 -5 -1 -5 -18z"/>
<path d="M487 9040 c-4 -14 -6 -38 -6 -55 1 -24 3 -21 10 15 10 49 7 80 -4 40z"/>
<path d="M466 8878 c-3 -13 -5 -41 -5 -63 1 -33 3 -29 9 20 8 63 7 81 -4 43z"/>
<path d="M436 8588 c-3 -13 -5 -66 -4 -118 l1 -95 8 115 c8 114 7 141 -5 98z"/>
<path d="M15562 8400 c0 -14 2 -19 5 -12 2 6 2 18 0 25 -3 6 -5 1 -5 -13z"/>
<path d="M431 7540 c0 -47 3 -91 8 -98 4 -7 6 24 4 70 -6 116 -11 128 -12 28z"/>
<path d="M15562 7600 c0 -14 2 -19 5 -12 2 6 2 18 0 25 -3 6 -5 1 -5 -13z"/>
<path d="M454 7188 c3 -31 10 -67 15 -80 7 -16 8 -4 4 42 -3 36 -10 72 -15 80
-6 10 -7 -5 -4 -42z"/>
<path d="M482 7010 c0 -19 2 -27 5 -17 2 9 2 25 0 35 -3 9 -5 1 -5 -18z"/>
<path d="M15491 6884 c0 -11 3 -14 6 -6 3 7 2 16 -1 19 -3 4 -6 -2 -5 -13z"/>
<path d="M532 6695 c0 -16 2 -22 5 -12 2 9 2 23 0 30 -3 6 -5 -1 -5 -18z"/>
<path d="M551 6570 c0 -19 4 -42 9 -50 8 -12 10 -11 9 5 -1 11 -5 34 -9 50
l-8 30 -1 -35z"/>
<path d="M581 6434 c0 -11 3 -14 6 -6 3 7 2 16 -1 19 -3 4 -6 -2 -5 -13z"/>
<path d="M621 6245 c0 -16 4 -37 9 -45 8 -12 10 -11 9 5 -1 11 -5 31 -9 45 -8
24 -8 24 -9 -5z"/>
<path d="M651 6125 c0 -11 4 -27 9 -35 9 -13 10 -13 9 0 0 8 -4 24 -9 35 l-9
20 0 -20z"/>
<path d="M671 6050 c0 -14 4 -32 9 -40 9 -13 10 -13 9 0 -1 8 -5 26 -9 40 l-8
25 -1 -25z"/>
<path d="M700 5944 c0 -10 5 -26 10 -34 8 -11 9 -7 4 15 -8 37 -14 45 -14 19z"/>
<path d="M721 5874 c-1 -12 6 -37 14 -55 18 -43 19 -27 1 31 -8 25 -15 36 -15
24z"/>
<path d="M751 5774 c-1 -15 30 -106 35 -101 2 2 -5 28 -15 58 -11 30 -20 49
-20 43z"/>
<path d="M820 5568 c-1 -20 31 -121 49 -154 12 -22 19 -29 16 -17 -9 32 -64
179 -65 171z"/>
<path d="M891 5360 c0 -8 4 -22 9 -30 12 -18 12 -2 0 25 -6 13 -9 15 -9 5z"/>
<path d="M920 5283 c0 -15 25 -78 38 -98 l14 -20 -7 20 c-26 76 -37 105 -41
105 -2 0 -4 -3 -4 -7z"/>
<path d="M970 5155 c0 -5 5 -17 10 -25 5 -8 10 -10 10 -5 0 6 -5 17 -10 25 -5
8 -10 11 -10 5z"/>
<path d="M993 5097 c18 -50 80 -187 83 -184 5 4 -73 187 -82 196 -4 3 -4 -2
-1 -12z"/>
</g>
</svg>
